# xmcd
#
# Track frame offsets:
#	150
#	11438
#	25081
#	40468
#	54534
#	69288
#	81646
#	94073
#	119838
#	136228
#	152148
#
# Disc length: 2265 seconds
#
# Revision: 4
# Processed by: cddbd v1.5.2PL0 Copyright (c) Steve Scherf et al.
# Submitted via: EasyCDDAExtractor 12.0.1.1
#
DISCID=9208d70b
DTITLE=Waterboys - Forever Young
DYEAR=2003
DGENRE=Pop
TTITLE0=We Will Rock You
TTITLE1=I Love Rock 'n' Roll
TTITLE2=Walk Like An Egyptian
TTITLE3=Should I Stay Or Should I Go
TTITLE4=Wot
TTITLE5=Tainted Love
TTITLE6=Boy's Don't Cry
TTITLE7=Shout
TTITLE8=Just Can't Get Enough
TTITLE9=Highway To Hell
TTITLE10=Forever Young
EXTD=
EXTT0=
EXTT1=
EXTT2=
EXTT3=
EXTT4=
EXTT5=
EXTT6=
EXTT7=
EXTT8=
EXTT9=
EXTT10=
PLAYORDER=
